<svg xmlns="http://www.w3.org/2000/svg" viewBox="0 0 494.02 99.65"><defs><style>.cls-1{fill:none;stroke:#fff;stroke-miterlimit:10;stroke-width:3.5px;}</style></defs><g id="Layer_2" data-name="Layer 2"><g id="Layer_1-2" data-name="Layer 1"><path class="cls-1" d="M134.58,76.17h-17.1V23.37h17.1A24.36,24.36,0,0,1,159,47.77v4A24.36,24.36,0,0,1,134.58,76.17Z"/><line class="cls-1" x1="184.17" y1="21.97" x2="184.17" y2="77.67"/><polyline class="cls-1" points="212.68 21.97 212.68 76.17 240.97 76.17"/><line class="cls-1" x1="414.57" y1="49.67" x2="390.67" y2="49.67"/><polyline class="cls-1" points="420.98 76.17 390.68 76.17 390.68 23.67 419.38 23.67"/><path class="cls-1" d="M296.67,22v37.3a17.63,17.63,0,0,1-17.6,17.6h-2.8a17.63,17.63,0,0,1-17.6-17.6V22"/><path class="cls-1" d="M366.77,68.77a26.8,26.8,0,0,1-19.2,8.1,27.2,27.2,0,0,1,0-54.4,26.47,26.47,0,0,1,17.8,6.8"/><ellipse class="cls-1" cx="465.98" cy="49.67" rx="26.3" ry="27.2"/><path class="cls-1" d="M73.68,7.77c0-5.7-3.81-7.7-8.5-4.5L5.27,44c-4.69,3.2-4.69,8.4,0,11.6l59.91,40.8c4.69,3.2,8.5,1.2,8.5-4.5v-64l-15.5,10.9v34.1L24,49.87,73.68,16Z"/></g></g></svg>