<?xml version="1.0" encoding="utf-8"?>
<!-- Generator: Adobe Illustrator 24.1.1, SVG Export Plug-In . SVG Version: 6.00 Build 0)  -->
<svg version="1.1" id="Layer_1" xmlns="http://www.w3.org/2000/svg" xmlns:xlink="http://www.w3.org/1999/xlink" x="0px" y="0px"
	 viewBox="0 0 500 108" style="enable-background:new 0 0 500 108;" xml:space="preserve">
<style type="text/css">
	.st0{fill:none;stroke:#000000;stroke-width:3.5;stroke-miterlimit:10;}
	.st1{fill-rule:evenodd;clip-rule:evenodd;fill:none;stroke:#000000;stroke-width:3.5;stroke-miterlimit:10;}
</style>
<path class="st0" d="M137.8,80.9h-17.1c0-3.3,0-46.6,0-52.8h17.1c13.5,0,24.4,10.9,24.4,24.4v4C162.2,70,151.3,80.9,137.8,80.9z"/>
<line class="st0" x1="187.4" y1="26.7" x2="187.4" y2="82.4"/>
<polyline class="st0" points="215.9,26.7 215.9,80.9 244.2,80.9 "/>
<g>
	<line class="st0" x1="417.8" y1="54.4" x2="393.9" y2="54.4"/>
	<polyline class="st0" points="424.2,80.9 393.9,80.9 393.9,28.4 422.6,28.4 	"/>
</g>
<path class="st0" d="M299.9,26.7V64c0,9.7-7.9,17.6-17.6,17.6h-2.8c-9.7,0-17.6-7.9-17.6-17.6V26.7"/>
<path class="st0" d="M370,73.5c-4.9,5-11.7,8.1-19.2,8.1c-14.9,0-27-12.2-27-27.2s12.1-27.2,27-27.2c6.8,0,13,2.5,17.8,6.8"/>
<ellipse class="st0" cx="469.2" cy="54.4" rx="26.3" ry="27.2"/>
<path class="st1" d="M76.9,12.5c0-5.7-3.8-7.7-8.5-4.5L8.5,48.7c-4.7,3.2-4.7,8.4,0,11.6l59.9,40.8c4.7,3.2,8.5,1.2,8.5-4.5v-64
	L61.4,43.5v34.1L27.2,54.6l49.7-33.9V12.5z"/>
</svg>
