<svg xmlns="http://www.w3.org/2000/svg" viewBox="0 0 100 100"><path d="M32.6,76.6a10.1,10.1,0,1,0,10.1,10A10,10,0,0,0,32.6,76.6Zm0,15.6a5.6,5.6,0,1,1,5.6-5.6A5.6,5.6,0,0,1,32.6,92.2Z"/><path d="M74.9,76.6a10.1,10.1,0,1,0,10,10A10,10,0,0,0,74.9,76.6Zm0,15.6a5.6,5.6,0,1,1,5.6-5.6A5.6,5.6,0,0,1,74.9,92.2Z"/><path d="M97.5,18.2a2.5,2.5,0,0,0-1.8-.8l-72.4-1-2-6.2a10.3,10.3,0,0,0-9.6-6.9H4.3A2.2,2.2,0,0,0,2.1,5.6,2.2,2.2,0,0,0,4.3,7.8h7.4a5.7,5.7,0,0,1,5.4,3.9L31.2,54.3l-1.1,2.5a10.5,10.5,0,0,0,9.3,14.4H82.7A2.2,2.2,0,0,0,84.9,69a2.2,2.2,0,0,0-2.2-2.3H39.4a5.4,5.4,0,0,1-4.6-2.6,6.4,6.4,0,0,1-.6-5.4l.9-2,46.8-4.9a12.1,12.1,0,0,0,10.6-9.3l5.3-22.4A1.9,1.9,0,0,0,97.5,18.2ZM88.1,41.5a7.6,7.6,0,0,1-6.7,5.9L35.1,52.2,24.7,20.8l68.2,1Z"/></svg>