<svg xmlns="http://www.w3.org/2000/svg" viewBox="0 0 100 100"><path d="M50,94.8a2.3,2.3,0,0,1-1.7-.7L9.8,55.7a29.8,29.8,0,0,1,0-41.9,29.3,29.3,0,0,1,21-8.6,30,30,0,0,1,18.6,6.4l.7.6.7-.6A29.6,29.6,0,0,1,69.4,5.2a29.3,29.3,0,0,1,20.9,8.6,29.6,29.6,0,0,1,8.5,21,30.3,30.3,0,0,1-8.6,21L51.7,94.1A2.3,2.3,0,0,1,50,94.8ZM30.8,10A24.6,24.6,0,0,0,6,34.7a25,25,0,0,0,7.2,17.6L50,89.1,86.8,52.4a25.4,25.4,0,0,0,.1-35.3,25.1,25.1,0,0,0-35.1.1,2.4,2.4,0,0,1-1.7.7,2.8,2.8,0,0,1-1.7-.7A24.7,24.7,0,0,0,30.8,10Z"/></svg>